# xmcd
#
# Track frame offsets:
#   150
#   15622
#   32607
#   51810
#   68265
#   84422
#   104160
#   117770
#   137885
#   155902
#   169257
#   185602
#   199690
#   211982
#
# Disc length: 3046 seconds
#
# Revision: 0
# Processed by: cddbd v1.5PL3 Copyright (c) Steve Scherf et al.
# Submitted via: uFREEDB ActiveX Control 1.5
#
DISCID=c10be40e
DTITLE=Luiz henrique and Fernando - Dona do Amor
DYEAR=1900
DGENRE=Country
TTITLE0=dona do amor
TTITLE1=onde te encontrar
TTITLE2=se deu vontade
TTITLE3=admirador apaixonado
TTITLE4=delírio do povão
TTITLE5=deixa eu te amar
TTITLE6=arrasta-pé
TTITLE7=faz parte da minha vida
TTITLE8=deixa essa de amigo
TTITLE9=valeu
TTITLE10=coração adolescente
TTITLE11=só um desejo
TTITLE12=pegando fogo
TTITLE13=paixão maluca
EXTD=1998
EXTT0=
EXTT1=
EXTT2=
EXTT3=
EXTT4=
EXTT5=
EXTT6=
EXTT7=
EXTT8=
EXTT9=
EXTT10=
EXTT11=
EXTT12=
EXTT13=
PLAYORDER=
